<svg xmlns="http://www.w3.org/2000/svg" viewBox="0 0 617.54 114.04"><defs><style>.cls-1,.cls-5{font-size:102px;font-family:Montserrat-ExtraBold, Montserrat;font-weight:800;}.cls-1,.cls-4,.cls-5,.cls-6{fill:#492f74;}.cls-1{letter-spacing:-0.01em;}.cls-2{letter-spacing:-0.02em;}.cls-3,.cls-5{letter-spacing:0em;}.cls-6{stroke:#492f74;stroke-linecap:round;stroke-linejoin:round;stroke-width:3px;}</style></defs><title>Asset 3</title><g id="Layer_2" data-name="Layer 2"><g id="Layer_1-2" data-name="Layer 1"><text class="cls-1" transform="translate(152.25 86.7)">S<tspan class="cls-2" x="65.08" y="0">T</tspan><tspan class="cls-3" x="128.21" y="0">Y</tspan></text><polygon class="cls-4" points="511.29 15.3 534.03 15.3 537.41 20.18 525.54 35.52 511.29 15.3"/><polygon class="cls-4" points="584.22 86.7 561.47 86.7 558.09 81.82 569.96 66.47 584.22 86.7"/><polygon class="cls-4" points="562.38 15.3 584.22 15.3 533.22 86.7 510.17 86.7 562.38 15.3"/><text class="cls-5" transform="translate(426.48 86.7)">O</text><path class="cls-4" d="M358.08,15.3v16l31.51-.08s12.18-.84,12.47,10.45-12.47,10.45-12.47,10.45H358.08V86.7h20.2v-19h11l13,19h21.62l-15.4-22.44s14.39-6,14.13-22.59c-1.48-29.1-32.9-26.37-32.9-26.37Z"/><polygon class="cls-6" points="28.92 13.44 1.5 32.94 12.47 47.56 1.5 57.31 12.47 91.44 17.95 67.06 28.92 86.56 61.83 86.56 72.8 67.06 78.28 91.44 89.25 57.31 78.28 47.56 89.25 32.94 61.83 13.44 67.31 32.94 23.44 32.94 28.92 13.44"/></g></g></svg>