<svg xmlns="http://www.w3.org/2000/svg" viewBox="0 0 586.84 239.23"><defs><style>.cls-1{fill:none;}.cls-2,.cls-6{font-size:102px;font-family:Montserrat-ExtraBold, Montserrat;font-weight:800;}.cls-2,.cls-5,.cls-6{fill:#fff;}.cls-2{letter-spacing:-0.01em;}.cls-3{letter-spacing:-0.02em;}.cls-4,.cls-6{letter-spacing:0em;}</style></defs><title>Styrox1</title><g id="Layer_2" data-name="Layer 2"><g id="Layer_1-2" data-name="Layer 1"><rect class="cls-1" width="586.84" height="239.23"/><text class="cls-2" transform="translate(60.77 144.59)">S<tspan class="cls-3" x="65.08" y="0">T</tspan><tspan class="cls-4" x="128.21" y="0">Y</tspan></text><polygon class="cls-5" points="419.81 73.19 442.56 73.19 445.93 78.06 434.07 93.41 419.81 73.19"/><polygon class="cls-5" points="492.74 144.59 470 144.59 466.62 139.71 478.48 124.36 492.74 144.59"/><polygon class="cls-5" points="470.9 73.19 492.74 73.19 441.74 144.59 418.69 144.59 470.9 73.19"/><text class="cls-6" transform="translate(335 144.59)">O</text><path class="cls-5" d="M266.61,73.19v16l31.5-.08s12.18-.84,12.47,10.44S298.11,110,298.11,110h-31.5v34.59h20.2v-19h11l13,19H332.4L317,122.14s14.4-6,14.14-22.59c-1.48-29.1-32.9-26.36-32.9-26.36Z"/></g></g></svg>